<?xml version="1.0" encoding="UTF-8" standalone="no"?>
<svg width="119px" height="28px" viewBox="0 0 119 28" version="1.1" xmlns="http://www.w3.org/2000/svg" xmlns:xlink="http://www.w3.org/1999/xlink">
    <!-- Generator: Sketch 3.7.2 (28276) - http://www.bohemiancoding.com/sketch -->
    <title>Logo</title>
    <desc>Created with Sketch.</desc>
    <defs></defs>
    <g id="How-It-Works" stroke="none" stroke-width="1" fill="none" fill-rule="evenodd">
        <g id="insurance_web" transform="translate(-141.000000, -104.000000)">
            <g id="Navigation">
                <g id="Nav" transform="translate(0.000000, 72.000000)">
                    <g id="Logo" transform="translate(141.000000, 32.000000)">
                        <path d="M113.639109,0.526474719 L113.639109,10.0030197 C113.639109,12.1089185 111.930693,13.8638343 109.75099,13.8638343 C107.630198,13.8638343 105.862871,12.1674157 105.862871,10.0030197 L105.862871,0.526474719 L100.619802,0.526474719 L100.619802,10.0030197 C100.619802,15.4432584 105.038119,19.0700843 108.985149,19.0700843 C111.105941,19.0700843 112.696535,18.1341292 113.639109,16.7886938 L113.639109,18.7191011 C113.639109,20.825 111.930693,22.5799157 109.75099,22.5799157 C108.219307,22.5799157 106.923267,21.7024579 106.275248,20.4740169 L101.680198,23.1063904 C103.211881,25.9142556 106.275248,27.8446629 109.692079,27.8446629 C114.758416,27.8446629 118.823267,23.7498596 118.823267,18.7775983 L118.823267,0.526474719 L113.639109,0.526474719 L113.639109,0.526474719 Z" id="Shape" fill="#2D2F30"></path>
                        <path d="M54.3747525,0.409480337 C49.3084158,0.409480337 45.2435644,4.50428371 45.2435644,9.47654494 L45.2435644,19.0700843 L50.5455446,19.0700843 L50.5455446,9.47654494 C50.5455446,7.37064607 52.2539604,5.61573034 54.4336634,5.61573034 C56.5544554,5.61573034 58.3217822,7.31214888 58.3217822,9.47654494 L58.3217822,19.0700843 L63.5648515,19.0700843 L63.5648515,9.47654494 C63.5059406,4.44578652 59.4410891,0.409480337 54.3747525,0.409480337 L54.3747525,0.409480337 Z" id="Shape" fill="#2D2F30"></path>
                        <path d="M98.0866337,0.526474719 C97.6153465,0.467977528 97.0851485,0.409480337 96.5549505,0.409480337 C91.4886139,0.409480337 87.4237624,4.50428371 87.4237624,9.47654494 L87.4237624,19.0700843 L92.7257426,19.0700843 L92.7257426,9.47654494 C92.7257426,7.37064607 94.4341584,5.61573034 96.6138614,5.61573034 C97.1440594,5.61573034 97.6742574,5.73272472 98.1455446,5.90821629 L98.1455446,0.526474719 L98.0866337,0.526474719 Z" id="Shape" fill="#2D2F30"></path>
                        <path d="M33.0490099,0.409480337 C27.8648515,0.409480337 23.6232673,4.5627809 23.6232673,9.7690309 C23.6232673,15.0337781 27.3935644,19.1285815 32.4009901,19.1285815 C34.4628713,19.1285815 36.1712871,18.2511236 37.1138614,16.847191 L37.1138614,19.1285815 L42.4158416,19.1285815 L42.4158416,9.7690309 C42.4747525,4.44578652 38.5277228,0.409480337 33.0490099,0.409480337 L33.0490099,0.409480337 Z M33.0490099,13.9223315 C30.7514851,13.9223315 28.8663366,12.0504213 28.8663366,9.7690309 C28.8663366,7.48764045 30.7514851,5.61573034 33.0490099,5.61573034 C35.3465347,5.61573034 37.2316832,7.48764045 37.2316832,9.7690309 C37.2316832,12.0504213 35.4054455,13.9223315 33.0490099,13.9223315 L33.0490099,13.9223315 Z" id="Shape" fill="#2D2F30"></path>
                        <path d="M75.2881188,0.409480337 C70.1039604,0.409480337 65.8623762,4.5627809 65.8623762,9.7690309 C65.8623762,15.0337781 69.6326733,19.1285815 74.640099,19.1285815 C76.7019802,19.1285815 78.410396,18.2511236 79.3529703,16.847191 L79.3529703,19.1285815 L84.6549505,19.1285815 L84.6549505,9.7690309 C84.6549505,4.44578652 80.7668317,0.409480337 75.2881188,0.409480337 L75.2881188,0.409480337 Z M75.2881188,13.9223315 C72.9905941,13.9223315 71.1054455,12.0504213 71.1054455,9.7690309 C71.1054455,7.48764045 72.9905941,5.61573034 75.2881188,5.61573034 C77.5856436,5.61573034 79.4707921,7.48764045 79.4707921,9.7690309 C79.4707921,12.0504213 77.5856436,13.9223315 75.2881188,13.9223315 L75.2881188,13.9223315 Z" id="Shape" fill="#2D2F30"></path>
                        <path d="M14.1386139,13.8053371 C11.8410891,13.8053371 10.0148515,11.9919242 10.0148515,9.71053371 C10.0148515,7.42914326 11.8410891,5.61573034 14.1386139,5.61573034 C15.670297,5.61573034 16.9663366,6.43469101 17.7321782,7.66313202 L22.2683168,5.03075843 C20.6188119,2.22289326 17.6143564,0.350983146 14.1386139,0.350983146 C9.95594059,0.350983146 6.36237624,3.10035112 5.18415842,6.90266854 L0.353465347,9.65203652 L5.18415842,12.4014045 C6.36237624,16.2037219 9.95594059,18.9530899 14.1386139,18.9530899 C17.6143564,18.9530899 20.6188119,17.0811798 22.2683168,14.2733146 L17.7321782,11.640941 C17.0252475,12.9863764 15.670297,13.8053371 14.1386139,13.8053371 L14.1386139,13.8053371 Z" id="Shape" fill="#2E2F31"></path>
                    </g>
                </g>
            </g>
        </g>
    </g>
</svg>